<?xml version="1.0" encoding="UTF-8" standalone="no"?>
<svg width="61px" height="22px" viewBox="0 0 61 22" version="1.1" xmlns="http://www.w3.org/2000/svg" xmlns:xlink="http://www.w3.org/1999/xlink" xmlns:sketch="http://www.bohemiancoding.com/sketch/ns">
    <!-- Generator: Sketch 3.3.3 (12081) - http://www.bohemiancoding.com/sketch -->
    <title>Wordmark</title>
    <desc>Created with Sketch.</desc>
    <defs></defs>
    <g id="Page-1" stroke="none" stroke-width="1" fill="none" fill-rule="evenodd" sketch:type="MSPage">
        <g id="iPhone-5/5S/5C" sketch:type="MSArtboardGroup" transform="translate(-28.000000, -208.000000)" fill="#FFFFFF">
            <g id="Header" sketch:type="MSLayerGroup" transform="translate(-15.000000, 208.000000)">
                <g id="Wordmark" transform="translate(43.500000, 0.500000)" sketch:type="MSShapeGroup">
                    <path d="M0.140171606,0.0934162879 L4.05886445,0.0934162879 L8.68493494,14.617025 L13.3110054,0.0934162879 L17.2294945,0.0934162879 L10.5896796,20.5612398 L6.77998651,20.5612398 L0.140171606,0.0934162879" id="Fill-1"></path>
                    <path d="M18.0147,6.54186917 L21.742898,6.54186917 L21.742898,20.5612398 L18.0147,20.5612398 L18.0147,6.54186917 Z" id="Fill-2"></path>
                    <path d="M22.9661398,17.1409442 L30.1228375,9.9348747 L23.0749358,9.9348747 L23.0749358,6.54186917 L35.1298977,6.54186917 L35.1298977,9.99134432 L27.9732,17.1692839 L35.2659945,17.1692839 L35.2659945,20.5612398 L22.9661398,20.5612398 L22.9661398,17.1409442" id="Fill-3"></path>
                    <path d="M35.5353359,13.5520793 C35.5353359,9.51439644 38.6645448,6.26204015 42.5830339,6.26204015 C46.5017267,6.26204015 49.6313431,9.51439644 49.6313431,13.5520793 C49.6313431,17.5895523 46.5017267,20.8421185 42.5830339,20.8421185 C38.6645448,20.8421185 35.5353359,17.5895523 35.5353359,13.5520793 L35.5353359,13.5520793 Z M46.0123485,13.5520793 C46.0123485,11.5613677 44.4883898,9.90653492 42.5830339,9.90653492 C40.651192,9.90653492 39.181835,11.5613677 39.181835,13.5520793 C39.181835,15.542581 40.651192,17.1965741 42.5830339,17.1965741 C44.4883898,17.1965741 46.0123485,15.542581 46.0123485,13.5520793 L46.0123485,13.5520793 Z" id="Fill-4"></path>
                    <path d="M50.5805575,6.54186917 L54.2814546,6.54186917 L54.2814546,8.84158924 C54.9619389,7.38345545 56.1868105,6.54186917 58.0371572,6.54186917 L59.5336114,6.54186917 L59.5336114,10.2711733 L57.1663819,10.2711733 C55.1797346,10.2711733 54.3089592,11.3371686 54.3089592,13.9440079 L54.3089592,20.5612398 L50.5805575,20.5612398 L50.5805575,6.54186917" id="Fill-5"></path>
                    <path d="M18.0018645,2.02765826 C18.0018645,0.959353788 18.842283,0.0934162879 19.8789009,0.0934162879 C20.9155188,0.0934162879 21.7559372,0.959353788 21.7559372,2.02765826 C21.7559372,3.0957528 20.9155188,3.9616903 19.8789009,3.9616903 C18.842283,3.9616903 18.0018645,3.0957528 18.0018645,2.02765826" id="Fill-6"></path>
                </g>
            </g>
        </g>
    </g>
</svg>